<svg xmlns="http://www.w3.org/2000/svg" width="116.688" height="116.596" viewBox="0 0 116.688 116.596">
  <g id="_745205" data-name="745205" transform="translate(0 -0.203)">
    <path id="Path_82" data-name="Path 82" d="M37.625,101.122H15.1a1.772,1.772,0,0,1-1.772-1.772V94.377A13.036,13.036,0,0,1,26.362,81.341h0A13.036,13.036,0,0,1,39.4,94.377V99.35A1.773,1.773,0,0,1,37.625,101.122Z" transform="translate(-10.289 -62.646)" fill="#c3da40"/>
    <path id="Path_83" data-name="Path 83" d="M137.926,266.591a11.175,11.175,0,0,1-4.822-5.681,11.614,11.614,0,0,1-6.994-10.775,11.484,11.484,0,0,1,11.285-11.65h14.362a11.655,11.655,0,0,1,0,23.3H140.619a11.182,11.182,0,0,0,.115,2.976l.516,3.044a.486.486,0,0,1-.747.487Z" transform="translate(-97.369 -183.977)" fill="#ff62a7"/>
    <path id="Path_84" data-name="Path 84" d="M185.845,250.137a11.484,11.484,0,0,0-11.285-11.65H160.2a10.916,10.916,0,0,0-4.553.994A18.515,18.515,0,0,0,174.2,256.658h9.7A11.847,11.847,0,0,0,185.845,250.137Z" transform="translate(-120.173 -183.978)" fill="#fc5479"/>
    <path id="Path_85" data-name="Path 85" d="M212.554,213.273a13.659,13.659,0,0,0,.312-4.516H198.923a14.29,14.29,0,1,1-.217-28.578h18.025A14.418,14.418,0,0,1,231.219,194.3a14.236,14.236,0,0,1-8.869,13.394c-1.172,3.549-4.505,6.078-7.1,7.578l-2.675,1.545a.486.486,0,0,1-.717-.531Z" transform="translate(-142.388 -138.959)" fill="#31d2f7"/>
    <path id="Path_86" data-name="Path 86" d="M196.1,198.572a14.3,14.3,0,0,1,14.287-14.511h16.252a14.57,14.57,0,0,0-9.907-3.881H198.705a14.29,14.29,0,1,0,.217,28.578h1.762A14.122,14.122,0,0,1,196.1,198.572Z" transform="translate(-142.387 -138.959)" fill="#13ace8"/>
    <path id="Path_87" data-name="Path 87" d="M408.108,101.122H385.581a1.772,1.772,0,0,1-1.772-1.772V94.377a13.036,13.036,0,0,1,13.036-13.036h0a13.036,13.036,0,0,1,13.036,13.036V99.35A1.773,1.773,0,0,1,408.108,101.122Z" transform="translate(-296.336 -62.646)" fill="#ffcf59"/>
    <path id="Path_88" data-name="Path 88" d="M37.625,406.65H15.1a1.772,1.772,0,0,1-1.772-1.773v-4.973a13.036,13.036,0,0,1,13.036-13.036h0A13.036,13.036,0,0,1,39.4,399.905v4.973A1.773,1.773,0,0,1,37.625,406.65Z" transform="translate(-10.289 -298.542)" fill="#ff62a7"/>
    <path id="Path_89" data-name="Path 89" d="M408.108,406.65H385.581a1.773,1.773,0,0,1-1.772-1.773v-4.973a13.036,13.036,0,0,1,13.036-13.036h0a13.036,13.036,0,0,1,13.036,13.036v4.973A1.773,1.773,0,0,1,408.108,406.65Z" transform="translate(-296.336 -298.542)" fill="#31d2f7"/>
    <path id="Path_90" data-name="Path 90" d="M23.342,99.35V94.377A13.039,13.039,0,0,1,31.37,82.34a12.994,12.994,0,0,0-5.009-1h0A13.036,13.036,0,0,0,13.325,94.377V99.35a1.773,1.773,0,0,0,1.773,1.772H25.115A1.772,1.772,0,0,1,23.342,99.35Z" transform="translate(-10.288 -62.646)" fill="#adbc15"/>
    <path id="Path_91" data-name="Path 91" d="M393.824,99.35V94.377a13.039,13.039,0,0,1,8.027-12.037,12.994,12.994,0,0,0-5.009-1h0a13.036,13.036,0,0,0-13.036,13.036V99.35a1.772,1.772,0,0,0,1.773,1.772H395.6A1.772,1.772,0,0,1,393.824,99.35Z" transform="translate(-296.335 -62.646)" fill="#ffb55c"/>
    <path id="Path_92" data-name="Path 92" d="M23.342,404.878V399.9a13.039,13.039,0,0,1,8.027-12.037,13,13,0,0,0-5.009-1h0A13.036,13.036,0,0,0,13.325,399.9v4.973A1.773,1.773,0,0,0,15.1,406.65H25.115A1.773,1.773,0,0,1,23.342,404.878Z" transform="translate(-10.288 -298.542)" fill="#fc5479"/>
    <path id="Path_93" data-name="Path 93" d="M393.824,404.878V399.9a13.039,13.039,0,0,1,8.027-12.037,13,13,0,0,0-5.009-1h0A13.036,13.036,0,0,0,383.807,399.9v4.973a1.773,1.773,0,0,0,1.773,1.773H395.6A1.773,1.773,0,0,1,393.824,404.878Z" transform="translate(-296.335 -298.542)" fill="#13ace8"/>
    <g id="Group_109" data-name="Group 109" transform="translate(7.513 9.221)">
      <path id="Path_94" data-name="Path 94" d="M41.412,56.667a8.448,8.448,0,1,1,8.448-8.448A8.457,8.457,0,0,1,41.412,56.667Z" transform="translate(-32.964 -39.771)" fill="#fad393"/>
      <path id="Path_95" data-name="Path 95" d="M411.894,56.667a8.448,8.448,0,1,1,8.448-8.448A8.457,8.457,0,0,1,411.894,56.667Z" transform="translate(-319.011 -39.771)" fill="#fad393"/>
      <path id="Path_96" data-name="Path 96" d="M41.412,362.2a8.448,8.448,0,1,1,8.448-8.448A8.457,8.457,0,0,1,41.412,362.2Z" transform="translate(-32.964 -275.668)" fill="#fad393"/>
      <path id="Path_97" data-name="Path 97" d="M411.894,362.2a8.448,8.448,0,1,1,8.448-8.448A8.457,8.457,0,0,1,411.894,362.2Z" transform="translate(-319.011 -275.668)" fill="#fad393"/>
    </g>
    <g id="Group_110" data-name="Group 110" transform="translate(7.512 9.221)">
      <path id="Path_98" data-name="Path 98" d="M40.941,48.219A8.455,8.455,0,0,1,45.4,40.775a8.448,8.448,0,1,0,0,14.888A8.453,8.453,0,0,1,40.941,48.219Z" transform="translate(-32.963 -39.771)" fill="#edb769"/>
      <path id="Path_99" data-name="Path 99" d="M411.424,48.219a8.455,8.455,0,0,1,4.459-7.444,8.448,8.448,0,1,0,0,14.888A8.454,8.454,0,0,1,411.424,48.219Z" transform="translate(-319.011 -39.771)" fill="#edb769"/>
      <path id="Path_100" data-name="Path 100" d="M40.941,353.748A8.455,8.455,0,0,1,45.4,346.3a8.448,8.448,0,1,0,0,14.888A8.454,8.454,0,0,1,40.941,353.748Z" transform="translate(-32.963 -275.668)" fill="#edb769"/>
      <path id="Path_101" data-name="Path 101" d="M411.424,353.748a8.455,8.455,0,0,1,4.459-7.444,8.448,8.448,0,1,0,0,14.888A8.454,8.454,0,0,1,411.424,353.748Z" transform="translate(-319.011 -275.668)" fill="#edb769"/>
    </g>
    <path id="Path_102" data-name="Path 102" d="M125.432,27.292a1.891,1.891,0,0,0,.951-.257,54.529,54.529,0,0,1,5.657-2.856,1.9,1.9,0,0,0-1.51-3.483,58.357,58.357,0,0,0-6.053,3.056,1.9,1.9,0,0,0,.955,3.541Z" transform="translate(-95.378 -15.701)"/>
    <path id="Path_103" data-name="Path 103" d="M291.853,7.622a54.406,54.406,0,0,1,6.173,1.446,1.9,1.9,0,1,0,1.081-3.64A58.226,58.226,0,0,0,292.5,3.881a1.9,1.9,0,0,0-.649,3.741Z" transform="translate(-224.123 -2.818)"/>
    <path id="Path_104" data-name="Path 104" d="M234.777,4.1c.038,0,.075,0,.113,0,1.078-.064,2.172-.1,3.254-.1h.006c1.028,0,2.066.029,3.086.086a1.9,1.9,0,1,0,.212-3.791c-1.09-.061-2.2-.092-3.3-.092h-.006c-1.155,0-2.325.034-3.476.1a1.9,1.9,0,0,0,.11,3.794Z" transform="translate(-179.805)"/>
    <path id="Path_105" data-name="Path 105" d="M490.06,190.3a1.9,1.9,0,0,0-1.407,2.287,54.6,54.6,0,0,1,1.107,6.243,1.9,1.9,0,1,0,3.77-.444,58.37,58.37,0,0,0-1.184-6.679A1.9,1.9,0,0,0,490.06,190.3Z" transform="translate(-377.246 -146.736)"/>
    <path id="Path_106" data-name="Path 106" d="M480.587,312.518a1.9,1.9,0,1,0,3.568,1.3,58.16,58.16,0,0,0,1.944-6.5,1.9,1.9,0,0,0-3.7-.872A54.4,54.4,0,0,1,480.587,312.518Z" transform="translate(-370.969 -235.314)"/>
    <path id="Path_107" data-name="Path 107" d="M346.548,23.872a54.582,54.582,0,0,1,5.671,2.841,1.9,1.9,0,0,0,1.9-3.29,58.323,58.323,0,0,0-6.068-3.04,1.9,1.9,0,1,0-1.5,3.488Z" transform="translate(-266.68 -15.462)"/>
    <path id="Path_108" data-name="Path 108" d="M8.135,305.286a1.9,1.9,0,0,0-1.409,2.285,58.13,58.13,0,0,0,1.95,6.5,1.9,1.9,0,0,0,3.567-1.3A54.358,54.358,0,0,1,10.42,306.7,1.9,1.9,0,0,0,8.135,305.286Z" transform="translate(-5.153 -235.513)"/>
    <path id="Path_109" data-name="Path 109" d="M178.164,9.3a1.9,1.9,0,0,0,.547-.081,54.4,54.4,0,0,1,6.168-1.466,1.9,1.9,0,0,0-.66-3.739,58.189,58.189,0,0,0-6.6,1.569,1.9,1.9,0,0,0,.546,3.717Z" transform="translate(-136.094 -2.923)"/>
    <path id="Path_110" data-name="Path 110" d="M495.965,247.347a1.9,1.9,0,0,0-1.9,1.9v.12a55.415,55.415,0,0,1-.364,6.333,1.9,1.9,0,1,0,3.772.436,59.178,59.178,0,0,0,.389-6.769v-.12A1.9,1.9,0,0,0,495.965,247.347Z" transform="translate(-381.175 -190.818)"/>
    <path id="Path_111" data-name="Path 111" d="M270.285,491.829a54.9,54.9,0,0,1-6.3.732,1.9,1.9,0,0,0,.108,3.793c.037,0,.074,0,.111,0a58.612,58.612,0,0,0,6.737-.783,1.9,1.9,0,1,0-.657-3.739Z" transform="translate(-202.441 -379.559)"/>
    <path id="Path_112" data-name="Path 112" d="M213.324,492.6a54.941,54.941,0,0,1-6.3-.725,1.9,1.9,0,1,0-.653,3.74,58.708,58.708,0,0,0,6.738.776c.036,0,.073,0,.109,0a1.9,1.9,0,0,0,.106-3.794Z" transform="translate(-158.124 -379.594)"/>
    <path id="Path_113" data-name="Path 113" d="M158.308,477.729a54.278,54.278,0,0,1-5.962-2.166,1.9,1.9,0,0,0-1.5,3.486,58.174,58.174,0,0,0,6.38,2.318,1.9,1.9,0,1,0,1.085-3.638Z" transform="translate(-115.579 -366.902)"/>
    <path id="Path_114" data-name="Path 114" d="M3.3,201.271a1.919,1.919,0,0,0,.219.013A1.9,1.9,0,0,0,5.4,199.6a54.563,54.563,0,0,1,1.087-6.247,1.9,1.9,0,0,0-3.7-.868,58.426,58.426,0,0,0-1.163,6.683A1.9,1.9,0,0,0,3.3,201.271Z" transform="translate(-1.249 -147.33)"/>
    <path id="Path_115" data-name="Path 115" d="M326.129,475.466a54.415,54.415,0,0,1-5.957,2.171,1.9,1.9,0,1,0,1.089,3.637,58.178,58.178,0,0,0,6.375-2.324,1.9,1.9,0,0,0-1.507-3.485Z" transform="translate(-246.157 -366.827)"/>
    <path id="Path_116" data-name="Path 116" d="M2.5,258.471a1.9,1.9,0,0,0,1.666-2.106,55.352,55.352,0,0,1-.37-6.333,1.9,1.9,0,0,0-1.9-1.9h0a1.9,1.9,0,0,0-1.9,1.9,59.174,59.174,0,0,0,.4,6.769,1.9,1.9,0,0,0,1.883,1.678A1.928,1.928,0,0,0,2.5,258.471Z" transform="translate(0 -191.427)"/>
    <path id="Path_117" data-name="Path 117" d="M8.737,65.126H30.67A4.039,4.039,0,0,0,34.7,61.091V56.517a13.707,13.707,0,0,0-.733-4.438,1.713,1.713,0,1,0-3.242,1.106,10.292,10.292,0,0,1,.55,3.332v4.574a.61.61,0,0,1-.609.609H8.736a.61.61,0,0,1-.609-.609V56.517a10.329,10.329,0,0,1,3.434-7.682A10.025,10.025,0,1,0,9.972,45.7,13.756,13.756,0,0,0,4.7,56.517v4.574A4.039,4.039,0,0,0,8.737,65.126ZM19.591,36.183A6.621,6.621,0,1,1,12.97,42.8,6.629,6.629,0,0,1,19.591,36.183Z" transform="translate(-3.63 -25.136)"/>
    <path id="Path_118" data-name="Path 118" d="M375.652,56.518v4.574a4.039,4.039,0,0,0,4.035,4.035H401.62a4.039,4.039,0,0,0,4.035-4.035V56.518a13.708,13.708,0,0,0-.733-4.438,1.713,1.713,0,1,0-3.242,1.106,10.3,10.3,0,0,1,.55,3.332v4.574a.61.61,0,0,1-.609.609H379.687a.61.61,0,0,1-.609-.609V56.518a10.329,10.329,0,0,1,3.434-7.682,10.023,10.023,0,1,0-1.589-3.132A13.754,13.754,0,0,0,375.652,56.518ZM390.54,36.184a6.621,6.621,0,1,1-6.621,6.621A6.629,6.629,0,0,1,390.54,36.184Z" transform="translate(-290.039 -25.136)"/>
    <path id="Path_119" data-name="Path 119" d="M402.747,355.88a1.713,1.713,0,0,0-1.068,2.174,10.3,10.3,0,0,1,.55,3.332v4.574a.61.61,0,0,1-.609.609H379.687a.61.61,0,0,1-.609-.609v-4.574a10.329,10.329,0,0,1,3.434-7.682,10.023,10.023,0,1,0-1.589-3.132,13.756,13.756,0,0,0-5.27,10.814v4.574A4.039,4.039,0,0,0,379.687,370H401.62a4.039,4.039,0,0,0,4.035-4.035v-4.574a13.708,13.708,0,0,0-.733-4.438A1.713,1.713,0,0,0,402.747,355.88ZM390.54,341.052a6.621,6.621,0,1,1-6.621,6.621A6.629,6.629,0,0,1,390.54,341.052Z" transform="translate(-290.038 -260.523)"/>
    <path id="Path_120" data-name="Path 120" d="M31.8,355.88a1.713,1.713,0,0,0-1.068,2.174,10.291,10.291,0,0,1,.55,3.332v4.574a.61.61,0,0,1-.609.609H8.737a.61.61,0,0,1-.609-.609v-4.574a10.329,10.329,0,0,1,3.434-7.682,10.024,10.024,0,1,0-1.589-3.132A13.756,13.756,0,0,0,4.7,361.386v4.574A4.039,4.039,0,0,0,8.737,370H30.67A4.039,4.039,0,0,0,34.7,365.96v-4.574a13.707,13.707,0,0,0-.733-4.438A1.713,1.713,0,0,0,31.8,355.88ZM19.591,341.052a6.621,6.621,0,1,1-6.621,6.621A6.629,6.629,0,0,1,19.591,341.052Z" transform="translate(-3.63 -260.523)"/>
    <path id="Path_121" data-name="Path 121" d="M166.5,173.165H148.273A15.91,15.91,0,0,0,132.6,186.454h-.622A13.084,13.084,0,0,0,119.1,199.7a13.23,13.23,0,0,0,7.323,11.951c2.2,5.326,9.058,7.88,9.362,7.991a1.713,1.713,0,0,0,2.146-2.317,12.4,12.4,0,0,1-1.159-4.377h9.573a12.9,12.9,0,0,0,11.83-8.01H160.9a14.886,14.886,0,0,1-1.521,5.913A1.712,1.712,0,0,0,161.5,213.2c.38-.134,9.026-3.252,11.679-9.728a15.888,15.888,0,0,0-6.681-30.3ZM171.18,200.6a1.684,1.684,0,0,0-.979,1.04c-.961,3-3.887,5.234-6.3,6.628a15.384,15.384,0,0,0,.338-5.223,1.718,1.718,0,0,0-1.7-1.532H148.273a12.373,12.373,0,0,1-4.641-.9,1.7,1.7,0,0,0-1.846.368l-.024.024a1.7,1.7,0,0,0,.569,2.777,15.781,15.781,0,0,0,5.942,1.155h6.063a9.381,9.381,0,0,1-7.995,4.585H135.1a1.709,1.709,0,0,0-1.7,1.513,12.922,12.922,0,0,0,.118,3.6,9.7,9.7,0,0,1-4.09-4.714,1.769,1.769,0,0,0-.985-1.106,9.79,9.79,0,0,1-5.922-9.11,9.656,9.656,0,0,1,9.458-9.823h.428a15.756,15.756,0,0,0,1.123,5.089,1.7,1.7,0,0,0,2.78.576l.025-.025a1.7,1.7,0,0,0,.37-1.839,12.385,12.385,0,0,1-.891-4.905,12.577,12.577,0,0,1,12.635-12.184h17.839a12.67,12.67,0,0,1,12.672,12.5A12.415,12.415,0,0,1,171.18,200.6Z" transform="translate(-91.954 -133.543)"/>
  </g>
</svg>
