<svg xmlns="http://www.w3.org/2000/svg" width="38.486" height="20.992" viewBox="0 0 38.486 20.992">
  <path id="ic_timeline_24px" d="M39.486,9.5a3.509,3.509,0,0,1-3.5,3.5,2.973,2.973,0,0,1-.892-.122l-6.228,6.21a3.09,3.09,0,0,1,.122.91,3.5,3.5,0,0,1-7,0,3.09,3.09,0,0,1,.122-.91l-4.461-4.461a3.44,3.44,0,0,1-1.819,0L7.875,22.6A2.973,2.973,0,0,1,8,23.494a3.5,3.5,0,1,1-3.5-3.5,2.973,2.973,0,0,1,.892.122l7.977-7.96a3.09,3.09,0,0,1-.122-.91,3.5,3.5,0,1,1,7,0,3.09,3.09,0,0,1-.122.91l4.461,4.461a3.44,3.44,0,0,1,1.819,0l6.21-6.228a2.973,2.973,0,0,1-.122-.892,3.5,3.5,0,0,1,7,0Z" transform="translate(-1 -6)" fill="#a7a7c5"/>
</svg>
