<svg xmlns="http://www.w3.org/2000/svg" width="33.188" height="43.635" viewBox="0 0 33.188 43.635">
  <g id="man-user" transform="translate(-41.895)">
    <path id="Path_27" data-name="Path 27" d="M113.32,21.34c4.851,0,8.784-4.777,8.784-10.67S120.813,0,113.32,0s-8.785,4.777-8.785,10.67S108.468,21.34,113.32,21.34Z" transform="translate(-54.831)" fill="#a7a7c5"/>
    <path id="Path_28" data-name="Path 28" d="M41.9,300.557c0-.359,0-.1,0,0Z" transform="translate(0 -262.924)" fill="#a7a7c5"/>
    <path id="Path_29" data-name="Path 29" d="M308.085,301.812c0-.1,0-.682,0,0Z" transform="translate(-233.005 -263.9)" fill="#a7a7c5"/>
    <path id="Path_30" data-name="Path 30" d="M75.073,192.782c-.163-10.266-1.5-13.191-11.763-15.042a6.15,6.15,0,0,1-4.81,1.84,6.151,6.151,0,0,1-4.81-1.84c-10.147,1.831-11.57,4.713-11.757,14.709-.015.816-.022.859-.025.764,0,.178,0,.506,0,1.079,0,0,2.442,4.924,16.591,4.924s16.591-4.924,16.591-4.924c0-.368,0-.624,0-.8A6.6,6.6,0,0,1,75.073,192.782Z" transform="translate(-0.011 -155.581)" fill="#a7a7c5"/>
  </g>
</svg>
