<svg xmlns="http://www.w3.org/2000/svg" width="56.908" height="64.407" viewBox="0 0 56.908 64.407">
  <g id="_1373037" data-name="1373037" transform="translate(-0.097 0)">
    <path id="Path_12" data-name="Path 12" d="M53.277,67.289a.972.972,0,0,1-.177-1.928l.245-.047a.972.972,0,0,1,.374,1.908l-.263.05A.975.975,0,0,1,53.277,67.289Zm3.387-.869a.972.972,0,0,1-.3-1.9l.236-.079a.972.972,0,0,1,.627,1.84l-.255.086A.965.965,0,0,1,56.664,66.42ZM59.9,65.106a.972.972,0,0,1-.425-1.847l.222-.109a.972.972,0,1,1,.869,1.739l-.242.119A.967.967,0,0,1,59.9,65.106Zm3.032-1.736a.972.972,0,0,1-.539-1.782l.206-.139a.972.972,0,1,1,1.093,1.608l-.224.15a.967.967,0,0,1-.536.162Zm2.774-2.124a.972.972,0,0,1-.641-1.7l.187-.166a.972.972,0,0,1,1.3,1.449l-.2.178a.97.97,0,0,1-.641.241Zm2.469-2.474a.972.972,0,0,1-.732-1.612l.164-.189a.972.972,0,0,1,1.476,1.264c-.058.068-.117.136-.176.2A.971.971,0,0,1,68.176,58.773Zm2.12-2.78a.972.972,0,0,1-.809-1.51l.137-.208a.972.972,0,0,1,1.631,1.057l-.148.226A.972.972,0,0,1,70.3,55.993Zm1.732-3.038a.973.973,0,0,1-.874-1.4l.108-.226a.972.972,0,0,1,1.758.83c-.038.081-.077.162-.116.243a.972.972,0,0,1-.876.549Zm1.312-3.243a.973.973,0,0,1-.924-1.275l.077-.238a.972.972,0,0,1,1.853.587q-.041.129-.083.257A.973.973,0,0,1,73.34,49.712Zm.864-3.392a.944.944,0,0,1-.177-.016.972.972,0,0,1-.78-1.132c.015-.082.029-.164.044-.246a.972.972,0,0,1,1.915.333q-.024.133-.048.265A.972.972,0,0,1,74.2,46.321Zm.4-3.473h-.048a.972.972,0,0,1-.924-1.018c0-.083.007-.166.011-.249a.972.972,0,0,1,1.942.075c0,.089-.007.179-.012.268A.972.972,0,0,1,74.605,42.848Zm-.062-3.5a.972.972,0,0,1-.968-.891c-.007-.083-.014-.166-.022-.248a.972.972,0,1,1,1.935-.181q.013.134.024.268a.972.972,0,0,1-.888,1.049ZM74.021,35.9a.972.972,0,0,1-.948-.763c-.018-.081-.036-.162-.055-.242a.972.972,0,0,1,1.894-.437c.02.086.04.174.059.261a.973.973,0,0,1-.95,1.181Zm-.978-3.354a.972.972,0,0,1-.912-.636l-.087-.234a.972.972,0,0,1,1.819-.687l.093.25a.972.972,0,0,1-.912,1.308Zm-1.42-3.193a.973.973,0,0,1-.86-.518q-.058-.111-.117-.22a.972.972,0,1,1,1.71-.925c.043.079.085.158.127.236a.973.973,0,0,1-.858,1.426Zm-1.835-2.975A.971.971,0,0,1,69,25.966l-.145-.2a.972.972,0,1,1,1.571-1.144c.053.072.106.145.158.219a.972.972,0,0,1-.791,1.536Zm-2.215-2.705a.967.967,0,0,1-.71-.308l-.172-.181A.972.972,0,0,1,68.1,21.838l.184.2a.972.972,0,0,1-.71,1.636Zm-2.554-2.388a.968.968,0,0,1-.615-.22l-.194-.157a.972.972,0,1,1,1.216-1.517l.209.17a.972.972,0,0,1-.616,1.724Zm0,0" transform="translate(-18.583 -6.825)" fill="#fd82ac"/>
    <path id="Path_13" data-name="Path 13" d="M22.408,67.289a.971.971,0,0,1-.179-.017l-.263-.05a.972.972,0,0,1,.374-1.908l.245.047a.972.972,0,0,1-.176,1.928Zm-3.387-.869a.97.97,0,0,1-.3-.049l-.255-.086a.972.972,0,1,1,.627-1.84l.236.079a.972.972,0,0,1-.3,1.9Zm-3.237-1.314a.969.969,0,0,1-.424-.1l-.242-.119a.972.972,0,1,1,.869-1.739l.222.109a.972.972,0,0,1-.425,1.847ZM12.753,63.37a.969.969,0,0,1-.537-.162l-.224-.15a.972.972,0,0,1,1.092-1.608l.206.139a.972.972,0,0,1-.538,1.782ZM9.978,61.246a.968.968,0,0,1-.64-.241c-.067-.059-.135-.118-.2-.178a.972.972,0,1,1,1.3-1.449l.187.166a.972.972,0,0,1-.642,1.7ZM7.509,58.773a.969.969,0,0,1-.733-.333l-.176-.2a.972.972,0,1,1,1.477-1.264l.163.189a.972.972,0,0,1-.731,1.612Zm-2.12-2.78a.971.971,0,0,1-.811-.435c-.05-.075-.1-.15-.148-.226a.972.972,0,0,1,1.631-1.057l.137.208a.972.972,0,0,1-.809,1.51ZM3.656,52.955a.973.973,0,0,1-.876-.549l-.116-.243a.972.972,0,0,1,1.758-.83c.036.076.072.151.109.226a.973.973,0,0,1-.875,1.4ZM2.345,49.712a.972.972,0,0,1-.923-.67q-.042-.128-.083-.257A.972.972,0,0,1,3.192,48.2q.038.119.077.238a.973.973,0,0,1-.924,1.275Zm-.864-3.392a.972.972,0,0,1-.955-.8Q.5,45.393.479,45.26a.972.972,0,0,1,1.915-.333c.014.082.029.164.044.246a.972.972,0,0,1-.78,1.132A.948.948,0,0,1,1.481,46.321Zm-.4-3.473a.971.971,0,0,1-.97-.925c0-.089-.008-.178-.012-.268a.972.972,0,0,1,1.943-.075c0,.083.007.167.011.25a.972.972,0,0,1-.924,1.018H1.08Zm.061-3.5-.081,0A.973.973,0,0,1,.172,38.3q.011-.134.024-.268a.972.972,0,1,1,1.936.181c-.008.083-.015.165-.022.248a.971.971,0,0,1-.968.891ZM1.663,35.9a.96.96,0,0,1-.21-.023.971.971,0,0,1-.74-1.158q.029-.131.059-.261a.972.972,0,0,1,1.894.437q-.028.122-.055.242a.972.972,0,0,1-.948.763Zm.979-3.354a.972.972,0,0,1-.912-1.308c.03-.084.061-.167.093-.25a.972.972,0,1,1,1.819.687q-.044.116-.087.234a.972.972,0,0,1-.912.636Zm1.42-3.193A.973.973,0,0,1,3.2,27.923l.126-.236a.972.972,0,1,1,1.71.925q-.059.109-.117.22a.973.973,0,0,1-.86.518ZM5.9,26.375a.972.972,0,0,1-.791-1.536c.052-.073.1-.146.158-.219a.972.972,0,1,1,1.571,1.144l-.145.2a.971.971,0,0,1-.793.408Zm2.215-2.705a.972.972,0,0,1-.71-1.636l.185-.2A.972.972,0,0,1,8.994,23.18l-.171.181a.969.969,0,0,1-.71.308Zm2.554-2.388a.972.972,0,0,1-.616-1.725l.209-.169A.972.972,0,1,1,11.475,20.9l-.194.157a.97.97,0,0,1-.615.22Zm0,0" transform="translate(0 -6.825)" fill="#fd82ac"/>
    <path id="Path_14" data-name="Path 14" d="M34.254,79.11,39.18,91.526a1.645,1.645,0,0,0,3.059,0L47.163,79.11Zm0,0" transform="translate(-12.158 -28.158)" fill="#4e7693"/>
    <path id="Path_15" data-name="Path 15" d="M50.085,79.11,45.16,91.525a1.648,1.648,0,0,1-2.7.56,1.633,1.633,0,0,0,.363-.56L47.752,79.11Zm0,0" transform="translate(-15.08 -28.158)" fill="#38627c"/>
    <path id="Path_16" data-name="Path 16" d="M32.046,17.646V56.307a1.4,1.4,0,0,0,1.4,1.4H46.4a1.4,1.4,0,0,0,1.4-1.4V17.646Zm0,0" transform="translate(-11.372 -6.281)" fill="#64bdff"/>
    <path id="Path_17" data-name="Path 17" d="M54.1,17.646V56.308a1.4,1.4,0,0,1-1.4,1.4H49.749a1.4,1.4,0,0,0,1.4-1.4V17.646Zm0,0" transform="translate(-17.673 -6.281)" fill="#43a3f9"/>
    <path id="Path_18" data-name="Path 18" d="M32.046,17.646V56.307a1.4,1.4,0,0,0,1.4,1.4h6.472V17.646Zm0,0" transform="translate(-11.372 -6.281)" fill="#1685fb"/>
    <path id="Path_19" data-name="Path 19" d="M55.885,17.185a5.615,5.615,0,0,1-5.308,7.431,5.755,5.755,0,0,1-.634-.036A3.4,3.4,0,0,1,46.6,27.392h-.028a2.329,2.329,0,0,1-2.3-2.335V2.863a1.777,1.777,0,0,1,.484-1.221A5.224,5.224,0,0,1,53.736,4.5a7.5,7.5,0,0,1,2.149,12.682Zm0,0" transform="translate(-15.725 0)" fill="#fc3e81"/>
    <g id="Group_34" data-name="Group 34" transform="translate(28.551 5.054)">
      <path id="Path_20" data-name="Path 20" d="M50.925,37.8a.938.938,0,0,1-.152-.012,6.449,6.449,0,0,1-3.435-1.706.972.972,0,1,1,1.335-1.413,4.515,4.515,0,0,0,2.4,1.2.972.972,0,0,1-.149,1.932Zm0,0" transform="translate(-45.257 -17.298)" fill="#f01054"/>
      <path id="Path_21" data-name="Path 21" d="M49.4,10.828a.971.971,0,0,1-1.372.059,4.14,4.14,0,0,0-3.4-1.054.967.967,0,0,1-.354-.014v-1.9l.078-.014a6.074,6.074,0,0,1,4.984,1.545.972.972,0,0,1,.06,1.373Zm0,0" transform="translate(-44.275 -7.847)" fill="#f01054"/>
      <path id="Path_22" data-name="Path 22" d="M59.35,21.954a6.579,6.579,0,0,0-4.885-4.143,6,6,0,0,0-.934-3A.972.972,0,0,0,51.9,15.866a4.094,4.094,0,0,1,.631,2.227,4.033,4.033,0,0,1-.851,2.532.972.972,0,1,0,1.513,1.22,5.766,5.766,0,0,0,1.06-2.1,4.712,4.712,0,0,1,3.283,2.9.972.972,0,0,0,1.817-.691Zm0,0" transform="translate(-46.833 -10.168)" fill="#f01054"/>
    </g>
    <path id="Path_23" data-name="Path 23" d="M36.413,2.863V25.057a2.328,2.328,0,0,1-2.3,2.335H34.09a3.4,3.4,0,0,1-3.343-2.812A5.614,5.614,0,0,1,24.8,17.185,7.5,7.5,0,0,1,26.953,4.5,5.225,5.225,0,0,1,35.93,1.642a1.779,1.779,0,0,1,.483,1.221Zm0,0" transform="translate(-7.862 0)" fill="#fd82ac"/>
    <path id="Path_24" data-name="Path 24" d="M34.939,37.8a.972.972,0,0,1-.149-1.932,4.515,4.515,0,0,0,2.4-1.2.972.972,0,0,1,1.335,1.413,6.45,6.45,0,0,1-3.436,1.705.993.993,0,0,1-.152.012Zm0,0" transform="translate(-12.056 -12.244)" fill="#fd6096"/>
    <path id="Path_25" data-name="Path 25" d="M41.3,7.924v1.9a.967.967,0,0,1-.354.014,4.139,4.139,0,0,0-3.395,1.054.972.972,0,0,1-1.313-1.433,6.075,6.075,0,0,1,4.984-1.544Zm0,0" transform="translate(-12.753 -2.793)" fill="#fd6096"/>
    <path id="Path_26" data-name="Path 26" d="M32.48,20.625a4.032,4.032,0,0,1-.852-2.532,4.1,4.1,0,0,1,.631-2.227.972.972,0,0,0-1.634-1.053,6,6,0,0,0-.934,3,6.58,6.58,0,0,0-4.885,4.143.972.972,0,1,0,1.817.691,4.71,4.71,0,0,1,3.283-2.9,5.75,5.75,0,0,0,1.06,2.1.972.972,0,1,0,1.513-1.22Zm0,0" transform="translate(-8.772 -5.114)" fill="#fd6096"/>
  </g>
</svg>
