<svg xmlns="http://www.w3.org/2000/svg" xmlns:xlink="http://www.w3.org/1999/xlink" width="51.299" height="54.893" viewBox="0 0 51.299 54.893">
  <defs>
    <filter id="Path_11" x="0" y="4.293" width="51.299" height="50.6" filterUnits="userSpaceOnUse">
      <feOffset dy="3" input="SourceAlpha"/>
      <feGaussianBlur stdDeviation="3" result="blur"/>
      <feFlood flood-opacity="0.212"/>
      <feComposite operator="in" in2="blur"/>
      <feComposite in="SourceGraphic"/>
    </filter>
  </defs>
  <g id="Group_33" data-name="Group 33" transform="translate(2.619 0)">
    <g id="Group_32" data-name="Group 32">
      <path id="Path_10" data-name="Path 10" d="M45.29,36.43l-6.981-6.981V21.385a2.64,2.64,0,0,0-5.28,0v2.784l-5.2-5.2a6.946,6.946,0,0,0-9.6,0L.773,36.43a2.641,2.641,0,0,0,3.735,3.734L21.962,22.709a1.559,1.559,0,0,1,2.136,0L41.555,40.164A2.641,2.641,0,1,0,45.29,36.43Z" transform="translate(-0.001 -17.047)" fill="#1685fb"/>
      <g transform="matrix(1, 0, 0, 1, -2.62, 0)" filter="url(#Path_11)">
        <path id="Path_11-2" data-name="Path 11" d="M86.194,128.128a1.3,1.3,0,0,0-1.834,0L69.007,143.477a1.3,1.3,0,0,0-.38.918v11.2a4.757,4.757,0,0,0,4.757,4.757h7.6V148.575h8.582v11.772h7.6a4.757,4.757,0,0,0,4.757-4.757V144.4a1.294,1.294,0,0,0-.38-.918Z" transform="translate(-59.63 -117.45)" fill="#1685fb"/>
      </g>
    </g>
  </g>
</svg>
