<svg xmlns="http://www.w3.org/2000/svg" xmlns:xlink="http://www.w3.org/1999/xlink" width="95" height="95" viewBox="0 0 95 95">
  <defs>
    <linearGradient id="linear-gradient" x1="0.5" y1="1" x2="0.5" gradientUnits="objectBoundingBox">
      <stop offset="0" stop-color="#8fdfd6"/>
      <stop offset="1" stop-color="#1685fb"/>
    </linearGradient>
  </defs>
  <path id="information" d="M26.048,76.613h42.9V21.452h-42.9Zm3.065-52.1H65.887V73.548H29.113ZM50.565,70.484H62.823V58.226H50.565Zm3.065-9.194h6.129v6.129H53.629ZM32.177,59.758H47.5v3.065H32.177Zm0,6.129H47.5v3.065H32.177Zm0-38.306H62.823v3.065H32.177ZM49.032,33.71h13.79v3.065H49.032Zm-3.065,3.065H32.177V33.71h13.79Zm0,6.129H32.177V39.839h13.79Zm-13.79,3.065H62.823v3.065H32.177Zm0,6.129H62.823v3.065H32.177ZM49.032,39.839h13.79V42.9H49.032ZM95,38.307A10.738,10.738,0,0,1,84.274,49.032H80.312l9.194,9.194H79.677V95H76.613V55.161h5.495l-9.194-9.194h11.36a7.661,7.661,0,1,0-7.661-7.661H73.548A10.738,10.738,0,0,1,84.274,27.581c.36,0,.717.02,1.068.054A10.722,10.722,0,0,0,75.081,13.79a10.828,10.828,0,0,0-2.337.265,12.188,12.188,0,0,1,.8,4.332H70.484a9.194,9.194,0,0,0-18.387,0H49.032a12.218,12.218,0,0,1,3.486-8.546,15.3,15.3,0,0,0-28,8.546H21.452A18.361,18.361,0,0,1,22,14.014a10.708,10.708,0,0,0-12.34,13.62c.351-.034.708-.054,1.068-.054A10.738,10.738,0,0,1,21.452,38.307H18.387a7.661,7.661,0,1,0-7.661,7.661h9.194V84.274H15.957l5.495,5.495,8.11-8.11,2.167,2.167L21.452,94.1,8.559,81.21h8.3V49.032H10.726A10.722,10.722,0,0,1,6.689,28.376a13.761,13.761,0,0,1,16.288-17.3A18.344,18.344,0,0,1,54.923,7.932a12.193,12.193,0,0,1,16.326,3.335A13.772,13.772,0,0,1,88.311,28.376,10.737,10.737,0,0,1,95,38.307Zm0,0" transform="translate(0 0)" fill="url(#linear-gradient)"/>
</svg>
